<svg width="24" height="24" viewBox="0 0 24 24" fill="none" xmlns="http://www.w3.org/2000/svg">
<path fill-rule="evenodd" clip-rule="evenodd" d="M10.2702 13.6099L2.35019 9.6099C2.07803 9.42347 1.91532 9.1148 1.91532 8.7849C1.91532 8.45501 2.07803 8.14634 2.35019 7.9599L10.2702 3.9599C10.6838 3.7557 11.1389 3.64962 11.6002 3.6499C12.0204 3.65217 12.4356 3.74066 12.8202 3.9099L21.6102 7.9099C21.9285 8.08602 22.1261 8.42111 22.1261 8.7849C22.1261 9.14869 21.9285 9.48379 21.6102 9.6599L12.8202 13.6599C12.4356 13.8291 12.0204 13.9176 11.6002 13.9199C11.1389 13.9202 10.6838 13.8141 10.2702 13.6099ZM11.6502 5.1099C11.4248 5.10834 11.2021 5.15972 11.0002 5.2599L4.00019 8.7499L11.0002 12.2299C11.2021 12.3301 11.4248 12.3815 11.6502 12.3799C11.8574 12.3822 12.0625 12.3377 12.2502 12.2499L19.9602 8.7499L12.2502 5.2399C12.0625 5.15207 11.8574 5.10764 11.6502 5.1099Z" fill="black"/>
<path d="M21.2902 12.0499L12.4402 15.7399C11.8989 15.9959 11.2715 15.9959 10.7302 15.7399L2.89019 12.0599C2.64546 11.9474 2.35929 11.9739 2.13946 12.1296C1.91964 12.2853 1.79956 12.5464 1.82446 12.8146C1.84937 13.0828 2.01546 13.3174 2.26019 13.4299L10.0802 17.0499C10.5654 17.2899 11.0989 17.4164 11.6402 17.4199C12.124 17.4211 12.6021 17.3152 13.0402 17.1099L21.8602 13.4399C22.0498 13.3648 22.2006 13.2158 22.2779 13.0271C22.3553 12.8385 22.3525 12.6265 22.2702 12.4399C22.1016 12.0675 21.6686 11.8952 21.2902 12.0499Z" fill="black"/>
<path d="M21.2902 15.1299L12.4402 18.8199C11.8989 19.0759 11.2715 19.0759 10.7302 18.8199L2.89019 15.1499C2.64541 15.0246 2.35166 15.0432 2.12472 15.1986C1.89778 15.3539 1.77406 15.621 1.80232 15.8945C1.83058 16.1681 2.00629 16.4042 2.26019 16.5099L10.0802 20.1299C10.5606 20.3732 11.0916 20.5 11.6302 20.4999C12.104 20.4973 12.5715 20.3916 13.0002 20.1899L21.8202 16.5199C22.0098 16.4448 22.1606 16.2958 22.2379 16.1071C22.3153 15.9185 22.3125 15.7065 22.2302 15.5199C22.0597 15.1719 21.657 15.0048 21.2902 15.1299Z" fill="black"/>
</svg>
